<?xml version="1.0" standalone="no"?>
<!DOCTYPE svg PUBLIC "-//W3C//DTD SVG 20010904//EN"
 "http://www.w3.org/TR/2001/REC-SVG-20010904/DTD/svg10.dtd">
<svg version="1.0" xmlns="http://www.w3.org/2000/svg"
 width="500.000000pt" height="500.000000pt" viewBox="0 0 500.000000 500.000000"
 preserveAspectRatio="xMidYMid meet">
<metadata>
Created by potrace 1.14, written by Peter Selinger 2001-2017
</metadata>
<g transform="translate(0.000000,500.000000) scale(0.100000,-0.100000)"
fill="#000000" stroke="none">
<path d="M2620 4255 c0 -12 -20 -15 -120 -15 -113 0 -120 -1 -120 -20 0 -18
-7 -20 -76 -20 -67 0 -76 -2 -81 -20 -5 -18 -14 -20 -79 -20 -67 0 -74 -2 -74
-20 0 -17 -7 -20 -40 -20 -33 0 -40 -3 -40 -20 0 -18 -7 -20 -60 -20 -53 0
-60 -2 -60 -20 0 -17 -7 -20 -40 -20 -33 0 -40 -3 -40 -20 0 -17 -7 -20 -40
-20 -33 0 -40 -3 -40 -20 0 -16 -7 -20 -34 -20 -25 0 -35 -5 -39 -20 -4 -15
-14 -20 -41 -20 -26 0 -36 -4 -36 -16 0 -9 -9 -18 -20 -21 -11 -3 -20 -14 -20
-24 0 -15 -7 -19 -40 -19 -33 0 -40 -3 -40 -20 0 -13 -7 -20 -20 -20 -13 0
-20 -7 -20 -20 0 -13 -7 -20 -20 -20 -11 0 -20 -7 -20 -15 0 -8 -9 -15 -20
-15 -18 0 -20 -7 -20 -60 0 -53 2 -60 20 -60 13 0 20 -7 20 -20 0 -13 7 -20
20 -20 18 0 20 -7 20 -80 0 -73 -2 -80 -20 -80 -17 0 -20 -7 -20 -40 0 -33 -3
-40 -20 -40 -20 0 -20 -7 -20 -350 0 -343 0 -350 -20 -350 -19 0 -20 -7 -20
-200 0 -193 -1 -200 -20 -200 -18 0 -20 -7 -20 -75 0 -68 2 -75 20 -75 19 0
20 -7 20 -116 0 -107 1 -116 20 -121 17 -5 20 -14 20 -59 0 -47 2 -54 20 -54
13 0 20 -7 20 -20 0 -13 7 -20 20 -20 13 0 20 -7 20 -20 0 -13 7 -20 20 -20
18 0 20 -7 20 -80 0 -73 2 -80 20 -80 17 0 20 -7 20 -40 0 -33 3 -40 20 -40
19 0 20 -7 20 -155 0 -148 -1 -155 -20 -155 -18 0 -20 -7 -20 -80 0 -73 2 -80
20 -80 18 0 20 7 20 75 0 68 2 75 20 75 19 0 20 7 20 180 0 153 2 180 15 180
11 0 15 -11 15 -40 0 -33 3 -40 20 -40 18 0 20 -7 20 -60 0 -53 2 -60 20 -60
18 0 20 -7 20 -60 0 -53 2 -60 20 -60 13 0 20 -7 20 -20 0 -13 7 -20 20 -20
18 0 20 -7 20 -55 0 -48 2 -55 20 -55 17 0 20 -7 20 -40 0 -33 3 -40 20 -40
13 0 20 -7 20 -20 0 -13 7 -20 20 -20 17 0 20 -7 20 -40 0 -33 3 -40 20 -40
13 0 20 -7 20 -20 0 -11 6 -20 14 -20 7 0 16 -9 19 -20 3 -11 12 -20 20 -20 8
0 17 -9 20 -20 3 -11 12 -20 21 -20 9 0 16 -7 16 -16 0 -9 9 -18 20 -21 11 -3
20 -12 20 -20 0 -8 9 -17 19 -20 11 -3 21 -13 24 -24 4 -17 15 -19 81 -19 61
0 76 -3 76 -15 0 -11 11 -15 40 -15 33 0 40 -3 40 -20 0 -16 7 -20 35 -20 34
0 35 -1 35 -40 0 -33 3 -40 20 -40 16 0 20 -7 20 -36 0 -27 5 -37 20 -41 11
-3 20 -14 20 -24 0 -17 8 -19 60 -19 l60 0 0 -35 c0 -28 -4 -35 -20 -35 -13 0
-20 -7 -20 -20 0 -17 -7 -20 -40 -20 -33 0 -40 -4 -40 -19 0 -10 -9 -21 -20
-24 -11 -3 -20 -13 -20 -22 0 -9 9 -19 20 -22 11 -3 20 -12 20 -20 0 -8 9 -17
20 -20 11 -3 20 -12 20 -21 0 -13 12 -14 82 -8 45 4 85 10 88 15 3 4 13 10 23
14 9 3 17 13 17 21 0 7 9 16 20 19 11 3 20 12 20 20 0 8 9 17 20 20 15 4 20
14 20 40 0 26 5 36 20 40 11 3 20 12 20 21 0 9 7 16 15 16 8 0 15 9 15 20 0
13 7 20 20 20 17 0 20 7 20 40 0 33 3 40 20 40 13 0 20 7 20 20 0 17 7 20 40
20 l40 0 0 40 0 40 40 0 c33 0 40 3 40 20 0 11 7 20 15 20 12 0 15 -16 15 -80
0 -73 -2 -80 -20 -80 -13 0 -20 -7 -20 -20 0 -11 -7 -20 -15 -20 -8 0 -15 -9
-15 -20 0 -11 7 -20 15 -20 8 0 15 -7 15 -16 0 -9 9 -18 20 -21 18 -5 20 -14
20 -75 0 -61 2 -69 18 -66 14 3 18 16 20 69 3 60 1 67 -18 72 -11 3 -20 12
-20 20 0 8 -9 17 -20 20 -11 3 -20 12 -20 21 0 9 8 16 20 16 13 0 20 7 20 20
0 13 7 20 20 20 19 0 20 7 20 100 0 93 1 100 20 100 13 0 20 7 20 20 0 13 7
20 20 20 13 0 20 7 20 20 0 13 7 20 20 20 17 0 20 7 20 40 0 33 3 40 20 40 17
0 20 7 20 40 0 33 3 40 20 40 18 0 20 7 20 55 0 48 2 55 20 55 17 0 20 7 20
40 0 33 3 40 20 40 18 0 20 7 20 60 0 53 2 60 20 60 18 0 20 7 20 60 0 53 2
60 20 60 18 0 20 7 20 74 0 65 2 74 20 79 18 5 20 14 20 81 0 61 3 76 15 76
12 0 15 15 15 76 0 67 2 76 20 81 18 5 20 14 20 99 0 87 1 94 20 94 20 0 20 7
20 335 0 328 0 335 20 335 18 0 20 7 20 60 0 53 2 60 20 60 19 0 20 7 20 115
0 108 1 115 20 115 18 0 20 7 20 80 0 73 2 80 20 80 19 0 20 7 20 195 0 188
-1 195 -20 195 -17 0 -20 7 -20 40 0 33 -3 40 -20 40 -17 0 -20 7 -20 40 0 33
-3 40 -20 40 -17 0 -20 7 -20 40 0 33 -3 40 -20 40 -16 0 -20 7 -20 35 0 25
-4 35 -16 35 -9 0 -18 9 -21 20 -3 11 -12 20 -20 20 -8 0 -17 9 -20 20 -3 11
-12 20 -19 20 -8 0 -14 9 -14 20 0 13 -7 20 -20 20 -17 0 -20 7 -20 40 l0 40
-40 0 c-33 0 -40 3 -40 20 0 13 -7 20 -20 20 -13 0 -20 7 -20 20 0 17 -7 20
-40 20 -33 0 -40 3 -40 20 0 18 -7 20 -80 20 -73 0 -80 2 -80 20 0 18 -7 20
-54 20 -45 0 -54 3 -59 20 -4 17 -14 20 -61 20 -49 0 -56 2 -56 20 0 17 -7 20
-40 20 -33 0 -40 3 -40 20 0 18 -7 20 -80 20 -64 0 -80 3 -80 15 0 12 -13 15
-55 15 -42 0 -55 -3 -55 -15z m110 -60 l0 -35 -155 0 c-131 0 -155 2 -155 15
0 12 18 15 100 15 93 0 100 1 100 20 0 18 7 20 55 20 l55 0 0 -35z m-1210
-410 c0 -8 -9 -15 -20 -15 -13 0 -20 -7 -20 -20 0 -13 -7 -20 -20 -20 -18 0
-20 -7 -20 -80 0 -73 -2 -80 -20 -80 -13 0 -20 7 -20 20 0 13 -7 20 -20 20
-18 0 -20 7 -20 55 0 48 2 55 20 55 13 0 20 7 20 20 0 13 7 20 20 20 13 0 20
7 20 20 0 17 7 20 40 20 29 0 40 -4 40 -15z m1440 -159 c0 -10 22 -15 80 -20
70 -7 80 -10 80 -27 0 -17 7 -19 60 -19 47 0 60 -3 60 -15 0 -11 11 -15 40
-15 33 0 40 -3 40 -20 0 -13 7 -20 20 -20 13 0 20 -7 20 -20 0 -13 7 -20 20
-20 13 0 20 -7 20 -20 0 -11 7 -20 15 -20 8 0 15 -9 15 -20 0 -17 7 -20 40
-20 l40 0 0 -40 c0 -33 3 -40 20 -40 18 0 20 -7 20 -60 0 -53 2 -60 20 -60 19
0 20 -7 20 -95 0 -88 1 -95 20 -95 18 0 20 -7 20 -75 0 -60 -3 -75 -15 -75 -8
0 -15 9 -15 20 0 19 -7 20 -140 20 -133 0 -140 -1 -140 -20 0 -17 -7 -20 -40
-20 -33 0 -40 -3 -40 -20 0 -13 -7 -20 -20 -20 -13 0 -20 -7 -20 -20 0 -17 -7
-20 -40 -20 -33 0 -40 -3 -40 -20 0 -13 -7 -20 -20 -20 -13 0 -20 -7 -20 -20
0 -13 -7 -20 -20 -20 -23 0 -25 -27 -14 -139 6 -50 10 -61 25 -61 16 0 19 -8
19 -60 l0 -60 35 0 c28 0 35 -4 35 -20 0 -17 7 -20 40 -20 33 0 40 -3 40 -20
0 -18 7 -20 80 -20 73 0 80 2 80 20 0 18 7 20 80 20 73 0 80 2 80 20 0 17 7
20 40 20 l40 0 0 60 c0 47 3 60 15 60 13 0 15 -39 15 -290 0 -283 0 -290 -20
-290 -19 0 -20 -7 -20 -100 0 -93 -1 -100 -20 -100 -17 0 -20 -7 -20 -40 0
-33 -3 -40 -20 -40 -17 0 -20 -7 -20 -40 0 -33 -3 -40 -20 -40 -18 0 -20 -7
-20 -54 0 -45 -3 -54 -20 -59 -11 -3 -20 -12 -20 -21 0 -9 -7 -16 -15 -16 -8
0 -15 9 -15 20 0 13 -7 20 -20 20 -13 0 -20 7 -20 20 0 16 -7 20 -35 20 -24 0
-35 5 -35 15 0 8 -9 15 -20 15 -13 0 -20 7 -20 20 0 17 -7 20 -40 20 -33 0
-40 3 -40 20 0 13 -7 20 -20 20 -13 0 -20 7 -20 20 0 13 -7 20 -20 20 -11 0
-20 6 -20 14 0 7 9 16 20 19 11 3 20 12 20 21 0 9 7 16 15 16 12 0 15 16 15
80 0 73 -2 80 -20 80 -13 0 -20 -7 -20 -20 0 -19 -7 -20 -95 -20 -78 0 -95 -3
-95 -15 0 -8 -9 -15 -20 -15 -11 0 -20 7 -20 15 0 12 -16 15 -80 15 -61 0 -80
-3 -80 -14 0 -7 -9 -16 -20 -19 -16 -4 -20 -14 -20 -46 0 -38 2 -41 29 -41 57
0 91 12 91 31 0 15 8 19 40 19 33 0 40 -3 40 -20 0 -13 -7 -20 -20 -20 -17 0
-20 -7 -20 -40 0 -33 -3 -40 -20 -40 -13 0 -20 -7 -20 -20 0 -13 -7 -20 -20
-20 -13 0 -20 -7 -20 -20 0 -17 -7 -20 -40 -20 l-40 0 0 -40 0 -40 65 0 c58 0
65 2 65 20 0 11 7 20 15 20 8 0 15 -9 15 -20 0 -13 7 -20 20 -20 13 0 20 7 20
20 0 11 6 20 14 20 7 0 16 -9 19 -20 4 -16 14 -20 46 -20 34 0 41 3 41 20 0
16 7 20 35 20 28 0 35 -4 35 -20 0 -13 7 -20 20 -20 11 0 20 -6 20 -14 0 -17
-83 -26 -236 -26 -107 0 -114 -1 -114 -20 0 -17 -7 -20 -40 -20 -27 0 -40 -4
-40 -14 0 -8 -15 -17 -35 -20 -21 -4 -35 -13 -35 -21 0 -12 -14 -15 -60 -15
-47 0 -60 3 -60 15 0 8 9 15 20 15 13 0 20 7 20 20 0 17 7 20 40 20 33 0 40 3
40 20 0 13 7 20 20 20 17 0 20 7 20 40 l0 40 -45 0 c-33 0 -45 -4 -45 -15 0
-11 -11 -15 -36 -15 -27 0 -37 -5 -41 -19 -3 -11 -13 -21 -24 -24 -10 -3 -19
-12 -19 -20 0 -8 -9 -17 -20 -20 -11 -3 -20 -12 -20 -20 0 -8 -9 -17 -20 -20
-11 -3 -20 -13 -20 -22 0 -9 9 -19 20 -22 11 -3 20 -12 20 -20 0 -8 9 -17 19
-20 11 -3 21 -13 24 -24 4 -13 14 -19 35 -19 49 0 92 12 92 25 0 17 76 21 338
17 193 -3 202 -4 202 -23 0 -16 6 -19 38 -17 20 1 56 1 80 0 35 -2 42 -5 42
-22 0 -13 7 -20 20 -20 18 0 20 -7 20 -75 0 -68 -2 -75 -20 -75 -18 0 -20 -7
-20 -55 0 -48 -2 -55 -20 -55 -17 0 -20 -7 -20 -40 0 -33 -3 -40 -20 -40 -17
0 -20 -7 -20 -40 0 -29 -4 -40 -15 -40 -8 0 -15 9 -15 20 0 17 -7 20 -45 20
-38 0 -45 -3 -45 -20 0 -18 -7 -20 -60 -20 -53 0 -60 -2 -60 -20 0 -16 -7 -20
-36 -20 -27 0 -37 -5 -41 -20 -7 -28 -59 -28 -66 0 -7 27 -47 27 -47 0 0 -18
-7 -20 -80 -20 -73 0 -80 -2 -80 -20 0 -13 -7 -20 -20 -20 -13 0 -20 -7 -20
-20 0 -11 -7 -20 -15 -20 -10 0 -15 11 -15 35 0 28 4 35 20 35 15 0 20 7 20
25 0 24 -3 25 -60 25 -53 0 -60 2 -60 20 0 13 -7 20 -20 20 -11 0 -20 7 -20
15 0 8 9 15 20 15 15 0 20 7 20 25 0 23 -4 25 -40 25 -33 0 -40 3 -40 20 0 16
-7 20 -34 20 -33 0 -35 2 -38 38 -2 30 -7 38 -25 40 -18 3 -23 -2 -23 -17 0
-12 -6 -21 -15 -21 -8 0 -15 7 -15 16 0 9 -9 18 -20 21 -11 3 -20 12 -20 19 0
10 -13 14 -40 14 -33 0 -40 3 -40 20 0 17 -7 20 -40 20 -33 0 -40 3 -40 20 0
18 -7 20 -65 20 -58 0 -65 -2 -65 -20 0 -16 -7 -20 -35 -20 -28 0 -35 4 -35
20 0 16 -7 20 -35 20 -28 0 -35 4 -35 20 0 13 -7 20 -20 20 -17 0 -20 7 -20
40 0 33 -3 40 -20 40 -17 0 -20 7 -20 40 0 33 -3 40 -20 40 -18 0 -20 7 -20
55 0 48 2 55 20 55 13 0 20 7 20 20 0 13 7 20 20 20 13 0 20 7 20 20 0 13 7
20 20 20 13 0 20 7 20 20 0 16 7 20 35 20 28 0 35 4 35 20 0 13 7 20 20 20 18
0 20 7 20 60 l0 60 -34 0 c-25 0 -35 5 -39 20 -4 15 -14 20 -41 20 -35 0 -36
1 -36 40 0 33 -3 40 -20 40 -13 0 -20 7 -20 20 0 13 -7 20 -20 20 -13 0 -20 7
-20 20 0 13 -7 20 -20 20 -13 0 -20 7 -20 20 0 13 -7 20 -20 20 -18 0 -20 7
-20 75 0 68 2 75 20 75 19 0 20 7 20 95 0 88 1 95 20 95 18 0 20 7 20 80 0 73
2 80 20 80 18 0 20 7 20 75 0 60 3 75 15 75 12 0 15 16 15 81 0 72 2 81 20 86
17 5 20 14 20 59 0 47 2 54 20 54 17 0 20 7 20 40 0 33 3 40 20 40 19 0 20 7
20 135 0 128 1 135 20 135 19 0 20 7 20 100 0 93 1 100 20 100 17 0 20 7 20
40 l0 40 40 0 c33 0 40 3 40 20 0 18 7 20 80 20 73 0 80 2 80 20 0 19 7 20
155 20 131 0 155 2 155 15 0 12 16 15 80 15 73 0 80 2 80 20 0 19 7 20 96 20
87 0 96 2 101 20 4 17 14 20 54 20 35 0 49 -4 49 -14z m750 -1021 c0 -8 -7
-15 -15 -15 -8 0 -15 7 -15 15 0 8 7 15 15 15 8 0 15 -7 15 -15z m-2390 -485
c0 -29 -4 -40 -15 -40 -11 0 -15 11 -15 40 0 29 4 40 15 40 11 0 15 -11 15
-40z m40 -120 c0 -33 3 -40 20 -40 13 0 20 -7 20 -20 0 -13 7 -20 20 -20 18 0
20 -7 20 -80 0 -73 -2 -80 -20 -80 -11 0 -20 -7 -20 -15 0 -8 -9 -15 -20 -15
-18 0 -20 7 -20 60 0 53 -2 60 -20 60 -19 0 -20 7 -20 95 0 88 1 95 20 95 17
0 20 -7 20 -40z m230 -455 c0 -10 -11 -15 -35 -15 -24 0 -35 5 -35 15 0 10 11
15 35 15 24 0 35 -5 35 -15z"/>
<path d="M2300 2925 c0 -11 -11 -15 -42 -15 -68 0 -118 -11 -118 -26 0 -8 -16
-16 -40 -20 -24 -4 -40 -12 -40 -20 0 -8 -7 -14 -16 -14 -9 0 -18 -9 -21 -20
-3 -11 -12 -20 -19 -20 -8 0 -14 -10 -14 -25 l0 -25 100 0 c93 0 100 1 100 20
0 19 7 20 129 20 120 0 129 -1 134 -20 3 -11 12 -20 21 -20 12 0 16 -10 16
-35 l0 -35 -135 0 c-128 0 -135 -1 -135 -20 0 -13 -7 -20 -20 -20 -13 0 -20
-7 -20 -20 0 -13 -7 -20 -20 -20 -13 0 -20 -7 -20 -20 0 -17 -7 -20 -40 -20
-33 0 -40 -3 -40 -20 0 -13 -7 -20 -20 -20 -17 0 -20 -7 -20 -40 0 -36 3 -40
25 -40 18 0 25 5 25 20 0 16 7 20 35 20 28 0 35 -4 35 -20 0 -13 7 -20 20 -20
13 0 20 -7 20 -20 0 -13 7 -20 20 -20 11 0 20 -6 20 -14 0 -17 83 -26 241 -26
112 0 119 1 119 20 0 13 7 20 20 20 13 0 20 7 20 20 0 13 7 20 20 20 13 0 20
7 20 20 0 13 7 20 20 20 13 0 20 7 20 20 0 13 7 20 20 20 11 0 20 7 20 15 0 8
7 15 16 15 9 0 18 9 21 19 3 11 13 21 24 24 16 4 19 14 19 62 0 48 -3 58 -20
62 -16 4 -20 14 -20 44 0 32 -3 39 -20 39 -16 0 -20 7 -20 34 0 31 -3 34 -40
40 -24 4 -40 12 -40 20 0 15 -87 26 -207 26 -58 0 -73 3 -73 15 0 11 -11 15
-40 15 -29 0 -40 -4 -40 -15z"/>
<path d="M2926 1149 c-3 -17 -6 -62 -6 -100 l0 -69 65 0 c58 0 65 2 65 20 0
13 7 20 20 20 18 0 20 7 20 55 0 48 2 55 20 55 15 0 20 7 20 25 0 25 0 25 -99
25 l-98 0 -7 -31z"/>
<path d="M1440 900 c0 -33 -3 -40 -20 -40 -18 0 -20 -7 -20 -60 0 -53 -2 -60
-20 -60 -11 0 -20 -7 -20 -15 0 -8 -9 -15 -20 -15 -13 0 -20 -7 -20 -19 0 -10
-9 -21 -20 -24 -11 -3 -20 -12 -20 -21 0 -9 -8 -16 -20 -16 -13 0 -20 -7 -20
-20 0 -13 -7 -20 -20 -20 -13 0 -20 -7 -20 -20 0 -13 -7 -20 -20 -20 -13 0
-20 -7 -20 -20 0 -11 -6 -20 -14 -20 -7 0 -16 -9 -19 -20 -3 -11 -12 -20 -21
-20 -9 0 -16 -8 -16 -20 0 -13 7 -20 20 -20 13 0 20 7 20 20 0 13 7 20 20 20
13 0 20 7 20 20 0 11 7 20 15 20 12 0 15 -15 15 -73 l0 -73 58 -29 c31 -17 68
-38 81 -47 13 -10 32 -18 42 -18 11 0 19 -4 19 -9 0 -11 55 -31 85 -31 13 0
25 -6 28 -14 3 -7 22 -16 41 -20 20 -4 36 -11 36 -15 0 -12 56 -31 90 -31 16
0 30 -6 33 -14 3 -7 16 -16 29 -19 13 -2 75 -19 138 -35 107 -29 229 -52 343
-66 l47 -6 0 55 c0 48 -2 55 -20 55 -13 0 -20 7 -20 20 0 13 -7 20 -20 20 -13
0 -20 7 -20 20 0 13 -7 20 -20 20 -13 0 -20 7 -20 20 0 13 -7 20 -20 20 -17 0
-20 7 -20 40 l0 40 -40 0 c-33 0 -40 3 -40 20 0 19 -7 20 -134 20 -125 0 -134
1 -139 20 -4 15 -14 20 -41 20 -26 0 -36 4 -36 16 0 9 -9 18 -20 21 -11 3 -20
12 -20 20 0 8 -9 17 -20 20 -17 5 -20 14 -20 59 0 47 -2 54 -20 54 -18 0 -20
7 -20 80 0 73 -2 80 -20 80 -18 0 -20 7 -20 80 0 73 -2 80 -20 80 -11 0 -20 7
-20 15 0 8 -9 15 -20 15 -17 0 -20 -7 -20 -40z"/>
<path d="M2960 65 c0 -9 9 -15 25 -15 16 0 25 6 25 15 0 9 -9 15 -25 15 -16 0
-25 -6 -25 -15z"/>
</g>
</svg>
